<svg width="25" height="17" viewBox="0 0 25 17" fill="none" xmlns="http://www.w3.org/2000/svg">
<path d="M14.749 16.25H20.7486C21.49 16.25 22.1199 16.0853 22.643 15.7983L14.749 11.1604V16.25Z" fill="#2E3192"/>
<path d="M24.3709 13.373C24.4564 12.9974 24.4999 12.5997 24.4999 12.1871V10.3405H19.209L24.3694 13.373" fill="#2E3192"/>
<path d="M0.631286 2.86557C0.542418 3.2585 0.498398 3.65997 0.500045 4.06253V5.90912H5.8112L0.631286 2.86557Z" fill="#2E3192"/>
<path d="M10.2496 0H4.24994C3.51386 0 2.88803 0.1625 2.36719 0.445398L10.2496 5.07665V0Z" fill="#2E3192"/>
<path d="M2.39062 15.8164C2.90659 16.0912 3.52418 16.25 4.24938 16.25H10.249V11.1992L2.39062 15.8164Z" fill="#2E3192"/>
<path d="M0.5 10.3409V12.1875C0.5 12.6126 0.545747 13.0222 0.636116 13.4074L5.85541 10.3409H0.5Z" fill="#2E3192"/>
<path d="M22.6666 0.463494C22.1394 0.168778 21.5008 0 20.7486 0H14.749V5.11543L22.6666 0.463494V0.463494Z" fill="#2E3192"/>
<path d="M24.4991 5.9091V4.06251C24.4991 3.65848 24.4567 3.26885 24.3746 2.90027L19.2539 5.9091H24.4991Z" fill="#2E3192"/>
<path d="M19.2532 5.90909L24.3739 2.90026C24.1391 1.84253 23.5677 0.966875 22.6666 0.463494L14.749 5.11543V0H13.999V6.64773H24.4983V5.90909H19.2532Z" fill="#E6E7E8"/>
<path d="M0.5 9.60229V10.3409H5.85541L0.636116 13.4074C0.883975 14.4618 1.47269 15.3275 2.391 15.8164L10.2494 11.1992V16.25H10.9993V9.60229H0.5Z" fill="#E6E7E8"/>
<path d="M24.4983 9.60229H13.999V16.25H14.749V11.1604L22.643 15.7987C23.5508 15.3009 24.1294 14.43 24.3694 13.3738L19.2089 10.3409H24.4983V9.60229Z" fill="#E6E7E8"/>
<path d="M10.2494 0V5.07665L2.367 0.445398C1.45581 0.940284 0.873476 1.80966 0.630867 2.86554L5.81116 5.90909H0.5V6.64773H10.9993V0H10.2494Z" fill="#E6E7E8"/>
<path d="M13.9991 6.64773V0H10.9993V6.64773H0.5V9.60227H10.9993V16.25H13.9991V9.60227H24.4985V6.64773H13.9991Z" fill="#BE1E2D"/>
<path d="M8.72644 5.90908L1.20817 1.48871C1.04656 1.72507 0.916813 1.98507 0.80957 2.26206L7.0143 5.90908H8.72531" fill="#BE1E2D"/>
<path d="M24.1578 14.0673L17.8533 10.3409H16.1074L23.7243 14.8536C23.9009 14.6105 24.0465 14.3469 24.1578 14.0688" fill="#BE1E2D"/>
<path d="M23.268 0.883026L14.7373 5.90908L16.4693 5.91019L23.8305 1.56959C23.6662 1.27524 23.493 1.08541 23.268 0.883026Z" fill="#BE1E2D"/>
<path d="M1.17969 14.7266C1.34836 14.9796 1.55135 15.2087 1.78302 15.4076L10.2729 10.3409H8.56184L1.17969 14.7266Z" fill="#BE1E2D"/>
</svg>
