<svg width="19" height="20" viewBox="0 0 19 20" fill="none" xmlns="http://www.w3.org/2000/svg">
<path d="M9.5 0.5C4.256 0.5 0 4.756 0 10C0 15.244 4.256 19.5 9.5 19.5C14.744 19.5 19 15.244 19 10C19 4.756 14.744 0.5 9.5 0.5ZM10.83 7.511C11.495 7.511 12.198 7.492 12.863 7.53C12.844 8.233 12.863 8.974 12.844 9.677C12.179 9.677 11.495 9.677 10.83 9.677C10.83 11.9 10.83 14.104 10.83 16.327C9.88 16.327 8.93 16.327 7.98 16.327C7.98 14.104 7.98 11.9 7.98 9.677C7.391 9.658 6.764 9.677 6.156 9.658C6.156 8.936 6.156 8.214 6.156 7.492C6.764 7.492 7.372 7.492 7.961 7.492C7.98 6.922 7.961 6.409 7.999 5.953C8.037 5.497 8.189 5.117 8.398 4.794C8.816 4.186 9.5 3.692 10.431 3.654C11.191 3.616 12.046 3.673 12.863 3.673C12.863 4.395 12.882 5.136 12.844 5.839C12.445 5.858 12.027 5.801 11.685 5.839C11.324 5.877 11.058 6.086 10.944 6.352C10.773 6.675 10.83 7.074 10.83 7.511Z" fill="white"/>
</svg>
