<svg width="53" height="53" viewBox="0 0 53 53" fill="none" xmlns="http://www.w3.org/2000/svg">
<path d="M28.9609 38H24.0098V22.1504H28.9609V38ZM23.7168 18.0635C23.7168 17.3604 23.9707 16.7842 24.4785 16.335C24.9863 15.8857 25.6455 15.6611 26.4561 15.6611C27.2666 15.6611 27.9258 15.8857 28.4336 16.335C28.9414 16.7842 29.1953 17.3604 29.1953 18.0635C29.1953 18.7666 28.9414 19.3428 28.4336 19.792C27.9258 20.2412 27.2666 20.4658 26.4561 20.4658C25.6455 20.4658 24.9863 20.2412 24.4785 19.792C23.9707 19.3428 23.7168 18.7666 23.7168 18.0635Z" fill="#1E6FF1"/>
<circle cx="26.5" cy="26.5" r="25" stroke="#1E6FF1" stroke-width="3"/>
</svg>
