<svg width="19" height="20" viewBox="0 0 19 20" fill="none" xmlns="http://www.w3.org/2000/svg">
<path d="M9.519 11.5958C10.298 11.5958 11.001 10.9498 11.039 10.1518C11.096 9.08784 10.184 8.42284 9.272 8.53684C8.607 8.63184 8.113 9.08784 7.98 9.75284C7.771 10.7978 8.664 11.5958 9.519 11.5958Z" fill="white"/>
<path d="M13.5469 5.55396H12.3499C12.1789 5.55396 12.0459 5.68696 12.0459 5.85796V7.05496C12.0459 7.22596 12.1789 7.35895 12.3499 7.35895H13.5469C13.7179 7.35895 13.8509 7.22596 13.8509 7.05496V5.85796C13.8699 5.68696 13.7179 5.55396 13.5469 5.55396Z" fill="white"/>
<path d="M9.5 0.5C4.256 0.5 0 4.756 0 10C0 15.244 4.256 19.5 9.5 19.5C14.744 19.5 19 15.244 19 10C19 4.756 14.744 0.5 9.5 0.5ZM14.839 12.888C14.839 13.61 14.706 14.161 14.326 14.598C13.984 14.978 13.528 15.301 12.882 15.358C11.818 15.434 10.678 15.358 9.538 15.358C8.455 15.358 7.296 15.434 6.194 15.358C5.111 15.282 4.275 14.484 4.199 13.363C4.085 11.881 4.275 10.133 4.199 8.537C4.199 8.499 4.218 8.461 4.256 8.461C5.263 8.461 6.251 8.461 7.258 8.461C7.353 8.518 7.182 8.651 7.125 8.746C6.916 9.126 6.764 9.696 6.821 10.323C6.897 11.577 7.961 12.66 9.31 12.755C10.298 12.831 11.096 12.356 11.59 11.748C12.046 11.197 12.426 10.228 12.084 9.202C12.046 9.069 11.97 8.936 11.894 8.822C11.837 8.708 11.742 8.594 11.742 8.461C12.768 8.461 13.775 8.461 14.801 8.461C14.858 10.019 14.839 11.444 14.839 12.888ZM7.41 10.095C7.391 9.411 7.714 8.86 8.037 8.537C8.36 8.214 8.759 8.005 9.386 7.967C10.545 7.891 11.495 8.708 11.609 9.772C11.723 10.95 10.906 11.995 9.842 12.128C9.652 12.147 9.386 12.147 9.196 12.128C8.265 12.033 7.429 11.178 7.41 10.095ZM14.839 8.157C13.984 8.157 13.205 8.157 12.331 8.157C12.065 8.157 11.742 8.214 11.495 8.157C11.343 8.119 11.267 7.967 11.134 7.872C10.716 7.568 10.07 7.302 9.272 7.359C8.683 7.397 8.284 7.606 7.904 7.91C7.809 7.986 7.657 8.138 7.543 8.176C7.315 8.233 6.973 8.176 6.688 8.176C5.871 8.176 5.073 8.176 4.199 8.176C4.237 7.549 4.123 6.941 4.218 6.409C4.332 5.782 4.712 5.345 5.092 5.079C5.092 5.82 5.092 7.302 5.092 7.302H5.51C5.51 7.302 5.472 5.592 5.529 4.813C5.586 4.756 5.719 4.775 5.795 4.718C5.852 5.516 5.852 7.302 5.852 7.302H6.27C6.27 7.302 6.27 5.592 6.27 4.737C6.27 4.699 6.27 4.661 6.289 4.661C6.384 4.661 6.46 4.661 6.555 4.661C6.555 5.535 6.555 7.302 6.555 7.302H6.992C6.992 7.302 6.992 5.535 6.992 4.661C8.778 4.756 11.077 4.547 12.825 4.661C13.509 4.699 14.079 5.041 14.402 5.459C14.877 6.067 14.858 6.96 14.839 8.157Z" fill="white"/>
</svg>
