<svg width="19" height="20" viewBox="0 0 19 20" fill="none" xmlns="http://www.w3.org/2000/svg">
<g clip-path="url(#clip0)">
<path d="M9.5 0.5C4.256 0.5 0 4.756 0 10C0 15.244 4.256 19.5 9.5 19.5C14.744 19.5 19 15.244 19 10C19 4.756 14.744 0.5 9.5 0.5ZM6.84 14.807C6.175 14.807 5.51 14.807 4.845 14.807C4.845 12.679 4.845 10.551 4.845 8.423C4.845 8.404 4.845 8.385 4.864 8.385C5.529 8.385 6.194 8.385 6.859 8.385C6.84 10.513 6.84 12.66 6.84 14.807ZM5.187 7.321C4.883 7.112 4.636 6.675 4.693 6.162C4.75 5.782 5.016 5.459 5.301 5.307C5.396 5.25 5.529 5.212 5.681 5.212C6.441 5.117 7.011 5.649 7.011 6.371C6.992 7.245 5.985 7.853 5.187 7.321ZM14.326 14.807C13.661 14.807 12.996 14.807 12.331 14.807C12.331 14.085 12.331 13.325 12.331 12.508C12.331 11.539 12.464 10.418 11.799 10.076C11.476 9.905 11.039 9.962 10.754 10.076C10.032 10.399 10.089 11.425 10.089 12.546C10.089 13.325 10.089 14.142 10.089 14.807C9.424 14.807 8.759 14.807 8.094 14.807C8.094 12.66 8.094 10.513 8.094 8.385C8.74 8.385 9.367 8.385 10.013 8.385C10.013 8.67 10.013 8.974 10.013 9.259C10.089 9.202 10.108 9.126 10.165 9.05C10.507 8.594 11.115 8.214 11.894 8.214C12.882 8.214 13.585 8.556 13.946 9.183C14.326 9.848 14.326 10.779 14.326 11.824C14.326 12.793 14.326 13.857 14.326 14.807Z" fill="white"/>
</g>
<defs>
<clipPath id="clip0">
<rect y="0.5" width="19" height="19" fill="white"/>
</clipPath>
</defs>
</svg>
