<svg width="520" height="414" viewBox="0 0 520 414" fill="none" xmlns="http://www.w3.org/2000/svg">
<path d="M328.066 413.302C327.378 403.938 323.007 395.229 315.912 389.085C308.817 382.941 299.576 379.864 290.217 380.528C290.546 379.835 290.831 379.122 291.071 378.393C292.098 375.041 292.2 371.473 291.366 368.068C290.531 364.663 288.792 361.547 286.331 359.051C283.871 356.555 280.782 354.772 277.391 353.891C274 353.009 270.434 353.062 267.071 354.044C263.708 355.026 260.673 356.901 258.288 359.469C255.903 362.037 254.257 365.203 253.524 368.631C252.791 372.06 252.999 375.623 254.125 378.942C255.252 382.262 257.254 385.215 259.922 387.488L259.538 387.339C254.448 385.78 249.034 385.61 243.856 386.848C245.128 379.136 244.047 371.219 240.755 364.131C237.463 357.043 232.112 351.113 225.402 347.113C225.85 345.896 226.276 344.658 226.66 343.42C231.747 326.914 230.397 309.094 222.884 293.543C216.365 280.147 213.836 265.156 215.599 250.361C217.362 235.565 223.342 221.59 232.826 210.103L233.317 209.505C259.708 178.247 305.173 150.726 315.329 143.317C315.678 143.098 315.978 142.808 316.21 142.466C316.441 142.124 316.599 141.738 316.672 141.332C316.746 140.926 316.734 140.508 316.638 140.107C316.541 139.706 316.362 139.329 316.111 139.001C315.861 138.673 315.545 138.4 315.184 138.201C314.822 138.002 314.423 137.881 314.012 137.845C313.601 137.809 313.187 137.86 312.797 137.993C312.406 138.127 312.048 138.34 311.745 138.62C283.256 157.786 252.099 172.642 219.279 182.71C204.003 187.3 184.609 184.717 166.816 179.934C145.486 173.913 126.868 160.745 114.076 142.634C105.904 131.436 94.3222 123.195 81.0703 119.148C75.7916 117.533 70.3282 116.6 64.813 116.372C65.3736 115.082 65.865 113.764 66.2852 112.422C68.7863 104.226 68.3862 95.4182 65.1525 87.4835C61.9188 79.5488 56.0494 72.973 48.5344 68.8656C49.1095 67.665 49.5944 66.4232 49.9852 65.1505C51.2144 61.0941 51.5726 56.8235 51.0362 52.6188C50.4998 48.4141 49.081 44.3705 46.8728 40.7533C44.6647 37.1361 41.7171 34.0271 38.2236 31.6304C34.7301 29.2337 30.7696 27.6034 26.602 26.8466C15.9345 24.8396 7.80587 26.2914 1 34.1914L1.59738 413.302H328.066Z" fill="url(#paint0_linear)"/>
<path d="M33.2587 20.2064C35.2148 20.8119 37.3065 20.8218 39.2682 20.2348C41.2298 19.6479 42.9729 18.4906 44.2758 16.91C45.5787 15.3294 46.3826 13.3969 46.5855 11.3579C46.7884 9.31902 46.381 7.2658 45.4152 5.45911C44.4493 3.65242 42.9686 2.17383 41.1611 1.21126C39.3537 0.248696 37.3011 -0.154397 35.2641 0.0531678C33.2272 0.260732 31.2979 1.06958 29.7214 2.37698C28.1449 3.68438 26.9924 5.43128 26.4102 7.39571C25.649 10.0032 25.9399 12.8055 27.2203 15.2007C28.5008 17.5959 30.6688 19.3931 33.2587 20.2064Z" fill="white"/>
<path d="M82.7988 113.084C84.7512 113.682 86.837 113.687 88.7924 113.099C90.7478 112.511 92.4852 111.356 93.7849 109.78C95.0845 108.204 95.8882 106.278 96.0942 104.245C96.3003 102.212 95.8995 100.164 94.9425 98.3589C93.9855 96.5539 92.5154 95.0732 90.7178 94.1042C88.9201 93.1352 86.8758 92.7213 84.8432 92.9148C82.8106 93.1082 80.8808 93.9003 79.298 95.1911C77.7151 96.4818 76.5502 98.2132 75.9503 100.166C75.5487 101.464 75.4074 102.829 75.5345 104.182C75.6617 105.535 76.0548 106.85 76.6912 108.05C77.3276 109.25 78.1949 110.313 79.243 111.177C80.2912 112.041 81.4996 112.689 82.7988 113.084Z" fill="white"/>
<path d="M84.7106 171.335C92.6107 167.14 95.617 157.33 91.4252 149.424C87.2335 141.518 77.4311 138.509 69.531 142.704C61.6309 146.899 58.6246 156.709 62.8164 164.615C67.0081 172.521 76.8105 175.53 84.7106 171.335Z" fill="white"/>
<path d="M273.088 413.302C266.688 411.338 251.156 411.637 250.366 410.099C247.408 404.536 242.744 400.069 237.06 397.355C231.377 394.642 224.973 393.825 218.791 395.025C222.037 389.015 223.909 382.359 224.273 375.537C224.637 368.715 223.484 361.897 220.896 355.576C218.308 349.254 214.35 343.586 209.307 338.98C204.265 334.375 198.264 330.947 191.738 328.944L191.012 328.751C194.346 328.339 197.423 326.749 199.689 324.268C201.956 321.787 203.263 318.578 203.376 315.219C203.489 311.859 202.399 308.57 200.304 305.942C198.209 303.315 195.246 301.522 191.947 300.886C188.649 300.251 185.232 300.815 182.312 302.476C179.392 304.137 177.16 306.787 176.019 309.948C174.877 313.11 174.9 316.575 176.085 319.721C177.269 322.867 179.536 325.486 182.478 327.107C175.868 326.515 169.209 327.353 162.951 329.563C156.693 331.774 150.983 335.305 146.209 339.918C145.675 339.363 145.121 338.829 144.545 338.295C145.833 336.31 146.839 334.154 147.532 331.89C148.598 328.421 148.933 324.767 148.514 321.162C148.096 317.556 146.933 314.077 145.099 310.945C158.938 309.802 171.757 303.211 180.745 292.62C189.733 282.028 194.154 268.3 193.039 254.45C196.047 230.622 209.147 212.922 237.245 192.531C279.446 161.871 294.359 151.793 294.359 151.793C294.359 151.793 253.055 175.579 221.308 187.642C189.562 199.705 165.41 194.602 165.41 194.602C160.744 193.759 155.944 194.059 151.419 195.475C146.894 196.892 142.778 199.383 139.424 202.737C138.444 197.424 136.042 192.476 132.476 188.42C128.909 184.364 124.311 181.351 119.17 179.702C114.029 178.053 108.537 177.829 103.279 179.054C98.0209 180.279 93.1928 182.908 89.3083 186.66C87.5101 184.601 85.2443 183.004 82.7012 182.004C80.1582 181.004 77.4124 180.629 74.6946 180.911C71.9768 181.194 69.3665 182.125 67.0831 183.627C64.7997 185.129 62.91 187.158 61.5728 189.542L59.7594 189.137C59.7681 189.044 59.7681 188.951 59.7594 188.859C61.3175 183.809 61.4868 178.433 60.2494 173.295C59.0121 168.158 56.4138 163.449 52.7281 159.664C49.0423 155.88 44.4054 153.159 39.3052 151.789C34.2049 150.419 28.83 150.45 23.7459 151.879C24.4955 146.808 24.2347 141.64 22.9788 136.671C21.7228 131.702 19.4964 127.031 16.428 122.927C22.6307 119.197 27.2358 113.303 29.357 106.38C34.1147 90.8359 24.4926 76.6588 9.85677 69.6129C4.395 66.9867 2.81622 64.5313 0 62.2681L0.597378 413.302H273.088Z" fill="white"/>
<path opacity="0.58" d="M475.448 214.117C475.576 213.818 475.726 213.519 475.854 213.242C475.982 212.964 475.726 213.541 475.448 214.117Z" fill="#078A8D"/>
<path opacity="0.58" d="M450.678 191.891C450.827 191.613 450.998 191.336 451.126 191.058C451.254 190.781 450.976 191.357 450.678 191.891Z" fill="#078A8D"/>
<path d="M298.074 136.656L306.688 143.704L312.814 155.274C314.379 156.803 304.463 164.141 302.882 165.491L275.378 188.751C275.378 188.751 269.217 177.738 266.405 173.742C263.592 169.745 254.92 159.744 254.92 159.744L285.966 141.454C287.762 140.411 297.167 134.7 298.074 136.656Z" fill="#1E6FF1"/>
<path d="M313.977 155.101C313.977 155.101 308.93 160.099 300.969 167.103C279.332 186.251 275.378 188.751 275.378 188.751C272.891 183.463 269.885 178.435 266.405 173.742C266.405 173.742 276.913 166.464 292.06 155.937C292.753 155.462 304.404 146.242 305.125 145.742C345.698 119.715 320.071 144.543 313.977 155.101Z" fill="#2C2A2A"/>
<path d="M254.951 159.739C254.174 160.29 258.116 167.239 263.765 175.25C269.415 183.261 274.632 189.298 275.409 188.747C276.186 188.196 272.243 181.247 266.594 173.236C260.945 165.225 255.737 159.176 254.951 159.739Z" fill="black"/>
<path d="M388.241 104.896L345.514 134.788L329.282 111.557L372.009 81.6651L388.241 104.896Z" fill="#1E6FF1" stroke="black"/>
<path d="M357.877 114.036C357.877 114.036 359.377 112.931 359.089 111.637C358.801 110.342 351.018 98.478 351.018 98.478C351.018 98.478 361.479 109.741 363.562 112.827C365.645 115.914 366.413 120.99 366.413 120.99L363.879 122.567L357.877 114.036Z" fill="#3C3C3C"/>
<path d="M372.548 123.151L372.538 123.135L372.528 123.12L346.543 86.3146L382.586 61.0975L411.177 102.009L375.038 127.3L372.548 123.151Z" fill="url(#paint1_linear)" stroke="black"/>
<path d="M363.15 122.45L312.049 158.2L295.817 134.969L346.918 99.2185L363.15 122.45Z" fill="url(#paint2_linear)" stroke="black"/>
<path opacity="0.8" d="M354.098 108.612C352.428 112.7 349.869 116.363 346.607 119.336C341.135 124.398 303.532 146.871 303.532 146.871L311.933 158.898L363.796 122.58L354.098 108.612Z" fill="#2E2E2E"/>
<path d="M424.738 38.7201L424.739 38.7216L433.481 57.0878L433.499 57.1255L433.528 57.1554L447.677 71.5947L447.677 71.5948C450.554 74.5281 450.649 79.0686 447.98 81.3235L447.979 81.3239L399.74 122.28C399.651 122.123 399.524 121.9 399.363 121.617C399.025 121.022 398.535 120.163 397.931 119.109C396.723 117.001 395.056 114.109 393.22 110.975C389.55 104.71 385.2 97.4676 382.495 93.5879C379.79 89.7082 374.309 82.8792 369.51 77.0271C367.11 74.0995 364.878 71.4139 363.246 69.4602C362.43 68.4834 361.765 67.6895 361.303 67.1398C361.076 66.8702 360.899 66.6593 360.777 66.5143L415.846 35.1778L415.848 35.177C418.836 33.4505 423.026 35.0591 424.738 38.7201Z" fill="url(#paint3_linear)" stroke="black" stroke-width="0.5"/>
<path d="M495.404 16.8984L495.403 16.9005C489.844 32.3629 478.338 48.0338 468.206 59.8499C463.142 65.7554 458.427 70.6928 454.977 74.1537C453.252 75.8841 451.844 77.2452 450.868 78.1734C450.379 78.6376 449.999 78.9935 449.741 79.2332C449.648 79.3194 449.571 79.3906 449.51 79.4464C435.436 67.2919 424.62 51.8106 418.045 34.4099C418.121 34.3711 418.219 34.3214 418.338 34.2614C418.661 34.0982 419.139 33.8587 419.76 33.5539C421.001 32.9444 422.809 32.0739 425.078 31.0308C429.616 28.9446 435.996 26.1682 443.363 23.4082C458.106 17.8853 476.772 12.4391 492.539 12.6968C493.036 12.7064 493.524 12.8349 493.961 13.0716C494.399 13.3084 494.774 13.6466 495.054 14.0578C495.335 14.4691 495.513 14.9416 495.574 15.4358C495.634 15.9299 495.576 16.4315 495.404 16.8984Z" fill="#1E6FF1" stroke="black" stroke-width="0.5"/>
<path d="M399.671 122.666L391.113 116.702C391.113 116.702 384.885 105.594 378.049 95.9552C369.064 83.2831 361.974 74.9989 361.974 74.9989L360.397 66.4872L362.191 68.3428C377.706 84.1905 390.387 102.586 399.68 122.728L399.671 122.666Z" fill="black"/>
<path d="M366.381 120.995C364.232 116.825 361.77 112.824 359.018 109.025C352.542 99.8853 349.534 96.8521 349.534 96.8521L348.743 90.3357C358.148 100.259 366.082 111.48 372.304 123.657L366.381 120.995Z" fill="black"/>
<path opacity="0.9" d="M446.924 77.4074C431.92 92.74 415.5 106.618 397.884 118.856C397.884 118.856 394.427 112.037 391.21 106.392C389.075 102.477 386.701 98.6971 384.102 95.0741C384.102 95.0741 405.538 85.106 434.387 63.8954C438.186 68.7382 442.379 73.2577 446.924 77.4074Z" fill="#323232"/>
<path d="M443.063 57.3475C459.651 44.4612 487.372 18.7376 493.714 16.2423C493.852 16.1882 494.003 16.1758 494.147 16.2066C494.292 16.2374 494.425 16.3101 494.528 16.4156C494.632 16.5211 494.703 16.6547 494.731 16.8C494.76 16.9453 494.745 17.0957 494.689 17.2327C492.878 21.8761 483.021 44.6923 454.524 70.6165C451.947 72.9645 449.409 75.2218 446.925 77.4178C442.381 73.268 438.188 68.7486 434.389 63.9057C437.212 61.8289 440.103 59.6428 443.063 57.3475Z" fill="#323232"/>
<path d="M427.788 77.8779C429.791 66.904 422.526 56.3806 411.559 54.3731C400.593 52.3656 390.079 59.6342 388.075 70.6081C386.072 81.5819 393.337 92.1053 404.304 94.1128C415.27 96.1203 425.784 88.8517 427.788 77.8779Z" fill="#2D2D2D"/>
<path opacity="0.8" d="M363.629 108.932C363.629 108.932 369.75 103.392 371.235 95.9203C372.249 90.6952 369.013 84.5009 366.927 81.2557C366.051 79.8579 365.393 79.0007 365.393 79.0007C365.393 79.0007 376.078 92.6188 381.165 100.342C386.251 108.065 391.099 116.673 391.099 116.673L374.875 128.019C374.875 128.019 373.819 126.414 372.616 124.248C370.195 119.895 366.358 112.867 363.629 108.932Z" fill="#2E2E2E"/>
<path opacity="0.8" d="M487.52 16.667C487.52 16.667 461.894 21.0818 443.819 28.4047C425.744 35.7275 420.349 40.0983 420.349 40.0983L418.091 35.1275C418.091 35.1275 441.009 22.72 464.098 18.2906C487.186 13.8612 494.063 12.9633 493.045 14.2404C492.026 15.5175 487.52 16.667 487.52 16.667Z" fill="url(#paint4_linear)"/>
<path opacity="0.9" d="M420.102 43.7761C420.102 43.7761 405.181 51.9026 394.445 58.3648C383.708 64.8271 369.791 74.566 369.791 74.566L363.578 67.4674C363.578 67.4674 386.042 54.5117 400.09 46.6429C412.816 39.5124 417.518 37.3254 417.518 37.3254L420.102 43.7761Z" fill="url(#paint5_linear)"/>
<path d="M346.499 98.9074L363.299 122.94C363.35 123.013 363.415 123.075 363.49 123.122C363.565 123.169 363.649 123.201 363.736 123.216C363.823 123.232 363.913 123.229 363.999 123.21C364.086 123.19 364.168 123.154 364.24 123.102C364.313 123.051 364.374 122.986 364.422 122.911C364.469 122.836 364.501 122.752 364.516 122.665C364.531 122.577 364.529 122.488 364.509 122.401C364.49 122.314 364.453 122.233 364.402 122.16L347.603 98.1272C347.501 97.9805 347.345 97.8804 347.169 97.8489C346.993 97.8174 346.812 97.857 346.666 97.9591C346.519 98.0612 346.419 98.2173 346.388 98.3932C346.356 98.5691 346.396 98.7503 346.498 98.897L346.499 98.9074Z" fill="black"/>
<path d="M359.607 128.631L315.41 159.551L295.697 131.337L339.894 100.417L359.607 128.631Z" fill="url(#paint6_linear)" stroke="black"/>
<path opacity="0.8" d="M348.531 111.894C347.656 115.859 345.718 119.51 342.924 122.454C338.365 127.093 305.156 145.737 305.156 145.737L315.296 160.254L360.315 128.756L348.531 111.894Z" fill="#2E2E2E"/>
<path d="M339.471 100.858L358.975 128.733C359.107 128.887 359.292 128.986 359.493 129.011C359.694 129.037 359.897 128.986 360.063 128.871C360.229 128.755 360.346 128.581 360.392 128.384C360.438 128.186 360.409 127.979 360.311 127.802L340.806 99.926C340.684 99.76 340.503 99.6478 340.3 99.6127C340.097 99.5777 339.888 99.6226 339.718 99.738C339.538 99.8551 339.412 100.038 339.366 100.247C339.32 100.457 339.357 100.676 339.471 100.858Z" fill="black"/>
<path d="M351.423 135.917L312.84 162.91L291.66 132.597L330.243 105.604L351.423 135.917Z" fill="url(#paint7_linear)" stroke="#121212"/>
<path opacity="0.8" d="M339.497 117.965C339.097 121.691 337.599 125.214 335.193 128.086C331.34 132.333 301.851 148.045 301.851 148.045L312.72 163.61L352.1 136.053L339.497 117.965Z" fill="#2E2E2E"/>
<path d="M292.048 134.157C291.271 134.708 295.213 141.657 300.862 149.668C306.511 157.678 311.73 163.726 312.507 163.175C313.284 162.624 309.342 155.675 303.691 147.654C298.04 139.633 292.835 133.605 292.048 134.157Z" fill="black"/>
<path d="M329.661 105.42L351.39 136.551C351.525 136.74 351.729 136.868 351.957 136.907C352.185 136.946 352.42 136.895 352.61 136.762C352.798 136.63 352.925 136.428 352.965 136.201C353.005 135.974 352.953 135.741 352.822 135.552L331.072 104.424C331.006 104.33 330.923 104.249 330.826 104.188C330.73 104.126 330.622 104.084 330.509 104.063C330.396 104.043 330.281 104.046 330.169 104.07C330.057 104.095 329.951 104.141 329.857 104.207C329.763 104.272 329.683 104.356 329.621 104.452C329.559 104.549 329.517 104.657 329.497 104.77C329.477 104.883 329.479 104.998 329.504 105.11C329.528 105.223 329.575 105.329 329.64 105.423L329.661 105.42Z" fill="black"/>
<path d="M407.875 63.5701C412.863 59.7481 417.867 61.7939 421.057 66.6151C424.248 71.4364 424.375 77.2025 419.387 81.0245C419.011 81.3191 418.615 81.5874 418.202 81.8274C417.234 82.4725 416.146 82.9163 415.002 83.1324C414.612 83.217 414.217 83.276 413.82 83.3088C411.879 83.598 407.044 83.82 405.067 84.2209C402.535 84.8979 400.138 86.0057 397.982 87.4957C397.603 87.7512 397.169 87.914 396.716 87.971L396.135 88.0576C395.815 88.1003 395.488 88.0555 395.191 87.9279C394.894 87.8003 394.637 87.5947 394.447 87.3328L391.327 83.1273C391.202 82.9634 391.115 82.7736 391.073 82.5718C391.03 82.37 391.033 82.1612 391.081 81.9608C391.13 81.7603 391.222 81.5732 391.352 81.4131C391.482 81.253 391.646 81.1239 391.832 81.0352C394.555 79.7375 400.055 76.8582 401.434 74.2961C403.252 70.8406 404.128 66.7507 406.758 64.5434C407.112 64.1988 407.485 63.8739 407.875 63.5701Z" fill="#1E6FF1"/>
<path d="M406.089 60.9172C411.078 57.0952 416.071 59.1425 419.272 63.9622C422.472 68.7819 422.59 74.5495 417.601 78.3715C417.21 78.6634 416.816 78.9345 416.416 79.1745C415.449 79.8145 414.366 80.2574 413.227 80.4779C412.833 80.558 412.435 80.6174 412.034 80.6558C410.104 80.9435 408.023 80.9991 406.056 81.3984C402.452 82.1267 402.036 82.8894 402.036 82.8894L399.507 79.0204L396.958 75.1545C396.958 75.1545 397.767 75.0338 399.606 71.5752C401.446 68.1165 402.3 64.0297 404.929 61.812C405.299 61.4929 405.687 61.1941 406.089 60.9172Z" fill="white"/>
<path d="M397.716 74.6169C397.987 76.2136 398.597 77.7335 399.505 79.0739C400.343 80.4082 401.476 81.5322 402.816 82.3592C402.816 82.3592 402.641 84.3171 402.045 84.2999C401.448 84.2827 401.419 84.0854 401.419 84.0854C401.419 84.0854 397.703 87.2613 395.99 87.0177C394.278 86.7741 392.949 84.4777 392.743 84.1582C392.536 83.8387 391.106 81.7909 391.428 80.1082C391.75 78.4255 395.753 75.5359 395.753 75.5359C395.753 75.5359 395.588 75.4225 395.774 74.8216C395.96 74.2206 397.716 74.6169 397.716 74.6169Z" fill="url(#paint8_linear)"/>
<path d="M401.024 80.9386C401.591 80.5461 404.586 78.4332 407.564 76.641C407.452 76.1114 407.425 75.5673 407.483 75.029C407.175 75.0499 406.866 75.0094 406.574 74.9098C406.381 74.8508 406.204 74.7483 406.056 74.6102C405.909 74.4721 405.795 74.3021 405.723 74.1131L406.447 73.846C406.479 73.928 406.53 74.0013 406.596 74.0597C406.662 74.1182 406.741 74.1602 406.826 74.1822C407.084 74.2595 407.354 74.2806 407.62 74.2443C407.782 73.703 408.102 73.2226 408.539 72.8653C409.246 72.2716 410.521 71.2855 411.166 71.4866C411.256 71.5158 411.337 71.5666 411.402 71.6345C411.468 71.7025 411.516 71.7855 411.542 71.8763C411.76 72.6293 410.532 73.7784 409.589 74.3542C409.18 74.6057 408.736 74.7936 408.271 74.9115C408.213 75.3446 408.215 75.7837 408.275 76.2166C409.638 75.2936 411.144 74.6028 412.733 74.172C413.909 74.0922 414.156 74.6817 414.205 74.9398C414.372 76.0613 412.626 77.5847 410.205 78.349C409.893 78.4719 409.552 78.5077 409.221 78.4524C408.89 78.3971 408.579 78.2529 408.324 78.0351C408.122 77.8507 407.956 77.6307 407.834 77.3863C405.384 78.8768 402.994 80.4962 401.596 81.5008L401.024 80.9386ZM412.784 74.9394C411.258 75.395 409.811 76.0832 408.495 76.9799C408.578 77.154 408.695 77.3098 408.839 77.4381C408.987 77.5637 409.167 77.6457 409.358 77.6753C409.55 77.7048 409.746 77.6806 409.925 77.6054C412.386 76.8245 413.48 75.4831 413.399 75.0812C413.404 75.0565 413.4 75.0306 413.388 75.0085C413.197 74.9301 412.987 74.9096 412.785 74.9498L412.784 74.9394ZM409.048 73.5007C408.859 73.6564 408.696 73.8419 408.567 74.05C408.787 73.9638 408.999 73.8577 409.199 73.7329C409.792 73.3797 410.306 72.9093 410.711 72.3505C410.11 72.6622 409.551 73.0487 409.048 73.5007Z" fill="#010101"/>
<path d="M398.223 76.5263C399.534 75.4286 401.796 73.4567 403.923 71.4306C403.593 71.0653 403.402 70.5957 403.383 70.1037C403.364 69.6118 403.518 69.1289 403.819 68.7393C405.265 66.5599 407.149 65.2494 408.115 65.7529C408.433 65.8965 408.828 66.3366 408.374 67.487C407.479 68.9506 406.366 70.269 405.074 71.3969C405.426 71.5977 405.805 71.7451 406.2 71.8341C406.435 71.3958 406.733 70.9939 407.083 70.641C407.902 69.8714 409.367 69.0267 409.953 69.4701C410.028 69.5233 410.088 69.5954 410.126 69.6791C410.165 69.7628 410.181 69.8552 410.172 69.9469C410.151 70.6612 408.729 71.7225 408.124 72.1418C407.684 72.4647 407.15 72.6338 406.604 72.6231C406.479 72.9122 406.407 73.2214 406.39 73.536C406.385 73.6239 406.397 73.712 406.425 73.7952C406.454 73.8784 406.499 73.955 406.558 74.0205L406.038 74.5864C405.906 74.4554 405.802 74.2995 405.731 74.1279C405.66 73.9564 405.623 73.7724 405.624 73.5867C405.634 73.2298 405.707 72.8775 405.84 72.546C405.358 72.4292 404.9 72.2278 404.489 71.9513C401.789 74.4767 398.694 77.1248 398.477 77.3058L398.223 76.5263ZM407.75 66.4336C407.428 66.2693 405.902 66.9852 404.466 69.163C404.309 69.3544 404.209 69.5849 404.174 69.8296C404.139 70.0742 404.172 70.3237 404.269 70.551C404.321 70.6749 404.391 70.7898 404.479 70.8912C405.716 69.8381 406.787 68.6049 407.657 67.233C407.867 66.7239 407.801 66.4897 407.754 66.4648L407.75 66.4336ZM407.64 71.2479C407.449 71.4256 407.275 71.6222 407.123 71.8345C407.334 71.7671 407.534 71.6693 407.716 71.5444C408.304 71.1642 408.835 70.7026 409.294 70.1734C408.676 70.4168 408.114 70.7822 407.64 71.2479Z" fill="#010101"/>
<path d="M401.038 84.0892C401.113 84.1398 401.205 84.1604 401.296 84.147C401.386 84.1335 401.468 84.087 401.525 84.0165C401.582 83.9368 401.606 83.8381 401.591 83.7413C401.577 83.6444 401.526 83.557 401.448 83.4973C400.255 82.5063 399.213 81.3455 398.357 80.0518C397.385 78.6894 396.662 77.1655 396.222 75.5509C396.212 75.503 396.193 75.4576 396.165 75.4174C396.137 75.3773 396.101 75.3434 396.059 75.3178C396.018 75.2921 395.971 75.2753 395.923 75.2683C395.875 75.2614 395.825 75.2645 395.778 75.2774C395.731 75.287 395.687 75.306 395.647 75.3333C395.608 75.3605 395.574 75.3954 395.549 75.4359C395.523 75.4764 395.506 75.5216 395.498 75.5689C395.49 75.6162 395.492 75.6645 395.503 75.7111C395.954 77.4247 396.712 79.0418 397.742 80.4831C398.637 81.8516 399.742 83.0697 401.017 84.0923L401.038 84.0892Z" fill="#010101"/>
<path d="M398.713 84.648C398.792 84.6949 398.884 84.7131 398.975 84.6996C399.066 84.686 399.149 84.6416 399.211 84.5738C399.271 84.4913 399.296 84.3883 399.281 84.2873C399.266 84.1862 399.212 84.0951 399.13 84.0338C398.053 83.131 397.144 82.0446 396.446 80.825C395.882 79.8635 395.463 78.8245 395.201 77.7411C395.173 77.6536 395.114 77.5789 395.036 77.5304C394.958 77.4819 394.865 77.4628 394.774 77.4763C394.683 77.4899 394.6 77.5353 394.54 77.6044C394.479 77.6736 394.445 77.7621 394.443 77.854C394.71 79.0247 395.157 80.1469 395.767 81.1809C396.513 82.4913 397.492 83.6547 398.655 84.6142C398.655 84.6142 398.695 84.5977 398.713 84.648Z" fill="#010101"/>
<path d="M397.894 85.2795C397.978 85.3167 398.072 85.323 398.16 85.2976C398.248 85.2721 398.324 85.2164 398.375 85.1403C398.425 85.0641 398.448 84.9725 398.438 84.8815C398.427 84.7905 398.385 84.7061 398.319 84.643C397.247 83.7353 396.339 82.6498 395.635 81.4341C395.072 80.4721 394.653 79.4333 394.39 78.3503C394.391 78.2939 394.379 78.238 394.357 78.1864C394.334 78.1348 394.3 78.0889 394.258 78.0517C394.215 78.0145 394.165 77.987 394.111 77.9711C394.057 77.9552 394 77.9513 393.944 77.9596C393.889 77.9679 393.835 77.9883 393.788 78.0192C393.741 78.0502 393.702 78.0911 393.672 78.139C393.642 78.187 393.623 78.2408 393.616 78.2968C393.61 78.3527 393.615 78.4095 393.632 78.4632C393.9 79.6302 394.345 80.749 394.954 81.7797C395.703 83.0916 396.682 84.2581 397.844 85.2234L397.894 85.2795Z" fill="#010101"/>
<path d="M397.076 85.9006C397.154 85.9474 397.247 85.9656 397.338 85.9521C397.429 85.9386 397.512 85.8941 397.574 85.8263C397.634 85.7438 397.659 85.6409 397.644 85.5398C397.629 85.4387 397.575 85.3477 397.493 85.2863C396.415 84.3825 395.503 83.2971 394.798 82.079C394.242 81.1186 393.826 80.0829 393.565 79.004C393.55 78.9021 393.495 78.8104 393.412 78.7491C393.33 78.6878 393.226 78.6619 393.124 78.677C393.022 78.6922 392.931 78.7473 392.869 78.83C392.808 78.9128 392.782 79.0166 392.798 79.1185C393.078 80.2823 393.527 81.399 394.13 82.4335C394.879 83.7454 395.857 84.9119 397.019 85.8771L397.076 85.9006Z" fill="#010101"/>
<path d="M402.931 66.409C402.931 66.409 407.598 57.6565 414.472 61.5039C416.001 62.33 417.293 63.5354 418.224 65.0045C419.154 66.4736 419.692 68.1572 419.785 69.8938C418.023 67.918 415.876 66.3236 413.476 65.2085C407.002 62.4797 404.157 65.738 402.931 66.409Z" fill="url(#paint9_linear)"/>
<path d="M428.94 57.3088C429.398 57.9624 429.869 58.6351 430.365 59.3256C443.013 76.929 448.955 80.2891 449.19 80.3708C449.266 80.4319 449.355 80.4757 449.45 80.499C449.544 80.5224 449.643 80.5247 449.739 80.5059C449.835 80.4872 449.925 80.4477 450.004 80.3903C450.083 80.3329 450.149 80.2589 450.197 80.1735C450.244 80.0882 450.272 79.9935 450.28 79.896C450.287 79.7986 450.273 79.7008 450.238 79.6093C450.204 79.5179 450.15 79.4351 450.08 79.3667C450.01 79.2983 449.926 79.2459 449.834 79.2133C449.834 79.2133 443.861 75.8578 431.466 58.5988C419.071 41.3398 418.425 34.3771 418.414 34.3044C418.408 34.2162 418.384 34.13 418.345 34.0508C418.306 33.9715 418.251 33.9009 418.184 33.8428C418.117 33.7848 418.04 33.7404 417.956 33.7124C417.872 33.6843 417.783 33.673 417.695 33.6792C417.607 33.6854 417.521 33.7089 417.442 33.7484C417.363 33.7879 417.292 33.8426 417.234 33.9094C417.176 33.9762 417.132 34.0538 417.104 34.1377C417.076 34.2217 417.064 34.3103 417.071 34.3986C417.082 34.6198 417.642 41.1494 428.94 57.3088Z" fill="black"/>
<path d="M300.698 164.753L300.699 164.754L305.382 173.609L305.404 173.652L305.441 173.684L312.938 179.996C313.561 180.521 314.021 181.06 314.246 181.624C314.463 182.17 314.465 182.756 314.142 183.414C313.749 183.942 313.317 184.44 312.85 184.904L312.85 184.904L312.846 184.908L287.993 210.706C287.962 210.656 287.926 210.599 287.887 210.537C287.71 210.252 287.454 209.843 287.138 209.34C286.506 208.334 285.633 206.955 284.669 205.465C282.746 202.489 280.454 199.052 279.006 197.254C277.559 195.457 274.646 192.363 272.103 189.726C270.829 188.405 269.646 187.197 268.781 186.318C268.348 185.879 267.995 185.522 267.75 185.275C267.682 185.207 267.623 185.147 267.572 185.096L296.172 163.795L296.173 163.795L296.178 163.79C296.524 163.517 296.927 163.323 297.356 163.222C297.786 163.122 298.232 163.117 298.664 163.209C299.096 163.301 299.502 163.487 299.853 163.754C300.205 164.021 300.493 164.362 300.698 164.753Z" fill="url(#paint10_linear)" stroke="black" stroke-width="0.5"/>
<path d="M277.032 131.008L277.053 131.086L277.116 131.136L284.997 137.434C285.553 138.02 285.948 138.602 286.108 139.182C286.264 139.75 286.202 140.334 285.808 140.954C285.692 141.095 285.682 141.284 285.691 141.43C285.702 141.596 285.746 141.79 285.805 141.991C285.918 142.381 286.103 142.852 286.282 143.309L286.301 143.357C286.489 143.837 286.668 144.297 286.769 144.662C286.819 144.846 286.845 144.99 286.847 145.092C286.848 145.142 286.844 145.169 286.84 145.181L256.241 165.064C256.217 165.009 256.19 164.946 256.16 164.876C256.032 164.579 255.846 164.151 255.616 163.625C255.156 162.574 254.516 161.132 253.8 159.569C252.369 156.45 250.621 152.828 249.375 150.878C248.132 148.934 245.574 145.541 243.333 142.642C242.211 141.191 241.166 139.861 240.402 138.893C240.02 138.409 239.708 138.016 239.492 137.744C239.442 137.682 239.397 137.626 239.358 137.576L273.894 122.638C273.923 122.683 273.957 122.74 273.995 122.811C274.079 122.969 274.171 123.17 274.27 123.403C274.445 123.819 274.632 124.318 274.82 124.82C274.844 124.882 274.867 124.944 274.89 125.006C275.1 125.565 275.31 126.116 275.498 126.524C275.592 126.727 275.685 126.906 275.776 127.037C275.821 127.101 275.874 127.166 275.934 127.215C275.948 127.226 275.964 127.238 275.982 127.249L277.032 131.008Z" stroke="black" stroke-width="0.5"/>
<path d="M314.035 183.555C314.006 183.587 313.981 183.615 313.958 183.641C306.571 178.524 300.817 171.382 297.386 163.073C297.419 163.051 297.457 163.025 297.5 162.996C297.685 162.872 297.959 162.688 298.313 162.454C299.023 161.987 300.055 161.316 301.347 160.508C303.93 158.89 307.548 156.718 311.687 154.502C319.857 150.127 330.022 145.6 338.262 144.791C335.868 153.537 329.829 163.214 324.339 170.755C321.56 174.572 318.928 177.834 316.99 180.142C316.021 181.296 315.226 182.212 314.673 182.838C314.397 183.152 314.181 183.393 314.035 183.555Z" fill="#1E6FF1" stroke="black" stroke-width="0.5"/>
<path d="M287.14 144.884C287.1 144.912 287.064 144.938 287.033 144.96C280.506 139.02 275.866 131.292 273.69 122.737C273.725 122.724 273.764 122.708 273.807 122.691C274.017 122.608 274.327 122.486 274.728 122.331C275.529 122.022 276.695 121.582 278.147 121.06C281.052 120.016 285.105 118.642 289.696 117.325C298.761 114.724 309.886 112.356 318.42 113.153C314.486 120.873 306.692 128.793 299.818 134.823C296.337 137.877 293.1 140.44 290.732 142.24C289.548 143.14 288.582 143.848 287.913 144.332C287.578 144.574 287.317 144.759 287.14 144.884Z" fill="#1E6FF1" stroke="black" stroke-width="0.5"/>
<path opacity="0.8" d="M314.001 184.012C319.166 178.223 323.921 172.08 328.232 165.628C323.937 172.091 319.181 178.235 314.001 184.012C312.985 185.161 287.961 211.045 287.961 211.045C285.42 206.16 282.342 201.574 278.784 197.372L302.527 176.986C303.166 176.435 303.802 175.862 304.397 175.296C307.172 178.64 310.406 181.574 314.001 184.012Z" fill="#2E2E2E"/>
<path opacity="0.58" d="M370.693 185.061C370.733 184.906 370.784 184.75 370.826 184.605C370.869 184.461 370.786 184.76 370.693 185.061Z" fill="#078A8D"/>
<path opacity="0.8" d="M304.46 175.287C317.881 163.287 331.794 146.192 332.765 145.591C334.68 145.101 336.631 144.767 338.599 144.594C338.567 144.737 338.506 144.894 338.474 145.037C338.031 147.046 335.966 153.967 328.249 165.668C323.953 172.13 319.197 178.274 314.019 184.052C310.436 181.595 307.217 178.645 304.46 175.287Z" fill="#2E2E2E"/>
<path opacity="0.7" d="M273.692 123.731C272.143 124.164 268.431 125.688 266.992 126.407C243.071 137.202 239.415 138.101 239.415 138.101C242.493 141.092 246.225 146.742 248.194 150.556C248.194 150.556 259.305 144.548 275.336 135.895C276.064 135.511 277.52 134.964 278.268 134.577C276.207 131.212 274.665 127.556 273.692 123.731Z" fill="white"/>
<path opacity="0.7" d="M278.264 134.546C290.537 128.215 303.56 123.153 309.179 120.925C310.79 120.29 312.263 119.349 313.518 118.155L313.58 118.145C313.847 117.884 314.032 117.55 314.113 117.185C314.194 116.82 314.167 116.44 314.037 116.09C313.906 115.739 313.676 115.435 313.376 115.212C313.075 114.99 312.717 114.86 312.344 114.837C309.542 114.682 303.684 114.876 294.633 116.99C287.498 118.753 280.499 121.031 273.693 123.805C274.674 127.593 276.215 131.213 278.264 134.546Z" fill="white"/>
<path d="M239.081 137.808C238.238 138.273 241.295 144.908 245.919 152.583C250.542 160.259 254.963 166.149 255.807 165.694C256.652 165.239 253.582 158.595 248.968 150.908C244.353 143.221 239.924 137.342 239.081 137.808Z" fill="black"/>
<path d="M267.073 185.128C266.349 185.756 270.429 192.058 276.197 199.233C281.966 206.409 287.22 211.697 287.943 211.069C288.666 210.441 284.587 204.139 278.817 196.953C273.047 189.767 267.794 184.489 267.073 185.128Z" fill="black"/>
<path opacity="0.58" d="M357.034 176.047C357.087 175.901 357.15 175.754 357.192 175.609C357.234 175.465 357.141 175.765 357.034 176.047Z" fill="#078A8D"/>
<path d="M285.207 179.272C285.324 179.394 285.484 179.467 285.653 179.475C285.822 179.484 285.987 179.427 286.116 179.317C293.096 173.555 300.38 168.174 307.939 163.198C313.696 159.479 319.944 156.582 326.502 154.592C326.675 154.548 326.824 154.437 326.915 154.283C327.007 154.129 327.033 153.945 326.989 153.771C326.945 153.597 326.834 153.448 326.68 153.357C326.526 153.265 326.342 153.239 326.169 153.283C319.464 155.312 313.075 158.265 307.186 162.057C299.569 167.064 292.233 172.484 285.21 178.294C285.142 178.351 285.085 178.42 285.044 178.498C285.002 178.576 284.976 178.661 284.967 178.749C284.959 178.837 284.968 178.926 284.994 179.011C285.02 179.095 285.062 179.174 285.118 179.242L285.207 179.272Z" fill="white"/>
<path d="M430.376 31.3642C430.473 31.4986 430.615 31.5936 430.777 31.6319C430.938 31.6702 431.108 31.6492 431.255 31.5727C456.361 17.9791 488.687 15.8879 489.012 15.8607C489.189 15.8491 489.354 15.768 489.471 15.6352C489.588 15.5024 489.648 15.3286 489.638 15.1517C489.626 14.9737 489.545 14.8073 489.413 14.6882C489.28 14.5691 489.106 14.5068 488.928 14.5145C488.606 14.5624 455.982 16.6451 430.611 30.3843C430.533 30.4256 430.464 30.4821 430.408 30.5505C430.352 30.619 430.31 30.698 430.285 30.7829C430.261 30.8677 430.253 30.9568 430.263 31.0447C430.273 31.1326 430.301 31.2176 430.344 31.2946C430.35 31.3196 430.361 31.3433 430.376 31.3642Z" fill="white"/>
<path d="M349.938 87.8223C349.988 87.8954 350.053 87.9575 350.128 88.0048C350.202 88.0521 350.286 88.0836 350.374 88.0974C350.461 88.1112 350.55 88.107 350.636 88.085C350.722 88.063 350.802 88.0238 350.872 87.9696C355.002 84.9338 361.835 79.9663 362.643 79.6972C362.728 79.6778 362.808 79.6418 362.879 79.5913C362.95 79.5407 363.011 79.4766 363.057 79.4027C363.103 79.3287 363.134 79.2463 363.148 79.1603C363.163 79.0743 363.16 78.9863 363.14 78.9013C363.097 78.7255 362.988 78.5733 362.835 78.4771C362.682 78.3809 362.497 78.3484 362.321 78.3866C361.449 78.5165 354.286 83.8304 350.075 86.889C350.004 86.9409 349.944 87.0063 349.899 87.0814C349.854 87.1566 349.824 87.2401 349.811 87.327C349.798 87.4138 349.803 87.5024 349.825 87.5874C349.847 87.6725 349.885 87.7523 349.938 87.8223Z" fill="white"/>
<defs>
<linearGradient id="paint0_linear" x1="-42.1254" y1="308.629" x2="395.404" y2="125.95" gradientUnits="userSpaceOnUse">
<stop offset="0.06" stop-color="white"/>
<stop offset="0.43" stop-color="white"/>
<stop offset="1" stop-color="white"/>
</linearGradient>
<linearGradient id="paint1_linear" x1="390.527" y1="114.064" x2="361.098" y2="72.131" gradientUnits="userSpaceOnUse">
<stop offset="0.09" stop-color="#1E6FF1"/>
<stop offset="0.87" stop-color="#004FCE"/>
</linearGradient>
<linearGradient id="paint2_linear" x1="-18680.6" y1="-2477.76" x2="-18707.9" y2="-3533.01" gradientUnits="userSpaceOnUse">
<stop offset="0.09" stop-color="#1E6FF1"/>
<stop offset="0.87"/>
</linearGradient>
<linearGradient id="paint3_linear" x1="-31103.1" y1="-24693.8" x2="-32752.7" y2="-27044.2" gradientUnits="userSpaceOnUse">
<stop offset="0.09" stop-color="#1E6FF1"/>
<stop offset="0.87" stop-color="#E9E9E9"/>
</linearGradient>
<linearGradient id="paint4_linear" x1="-20893.1" y1="-28244.5" x2="-20613.2" y2="-28574.3" gradientUnits="userSpaceOnUse">
<stop offset="0.06" stop-color="white"/>
<stop offset="0.43" stop-color="white"/>
<stop offset="1" stop-color="white"/>
</linearGradient>
<linearGradient id="paint5_linear" x1="-19022.2" y1="-20377.4" x2="-18667.4" y2="-21246.9" gradientUnits="userSpaceOnUse">
<stop offset="0.06" stop-color="white"/>
<stop offset="0.43" stop-color="white"/>
<stop offset="1" stop-color="white"/>
</linearGradient>
<linearGradient id="paint6_linear" x1="-18799.9" y1="-5684.3" x2="-18657" y2="-6743.06" gradientUnits="userSpaceOnUse">
<stop offset="0.09" stop-color="#1E6FF1"/>
<stop offset="0.87"/>
</linearGradient>
<linearGradient id="paint7_linear" x1="-18479" y1="-7281.87" x2="-18253.7" y2="-8222.49" gradientUnits="userSpaceOnUse">
<stop offset="0.09" stop-color="#1E6FF1"/>
<stop offset="0.87"/>
</linearGradient>
<linearGradient id="paint8_linear" x1="413.09" y1="85.2087" x2="393.123" y2="78.0794" gradientUnits="userSpaceOnUse">
<stop offset="0.17" stop-color="white"/>
<stop offset="0.79" stop-color="#A5A5A5"/>
</linearGradient>
<linearGradient id="paint9_linear" x1="419.649" y1="56.2276" x2="408.34" y2="67.5576" gradientUnits="userSpaceOnUse">
<stop offset="0.06" stop-color="#505050"/>
<stop offset="1" stop-color="white"/>
</linearGradient>
<linearGradient id="paint10_linear" x1="-21554.7" y1="-5786.98" x2="-21622.5" y2="-7068.87" gradientUnits="userSpaceOnUse">
<stop offset="0.09" stop-color="#1E6FF1"/>
<stop offset="0.87" stop-color="#E7E7E7"/>
</linearGradient>
</defs>
</svg>
