<svg width="19" height="20" viewBox="0 0 19 20" fill="none" xmlns="http://www.w3.org/2000/svg">
<path d="M9.5 0.5C4.256 0.5 0 4.756 0 10C0 15.244 4.256 19.5 9.5 19.5C14.744 19.5 19 15.244 19 10C19 4.756 14.744 0.5 9.5 0.5ZM14.573 7.416C14.63 9.145 14.136 10.532 13.49 11.615C12.863 12.679 12.008 13.534 10.982 14.142C9.956 14.769 8.588 15.225 6.973 15.168C5.472 15.13 4.275 14.693 3.306 14.104C3.249 14.066 3.173 14.028 3.135 13.971C4.807 14.161 6.08 13.61 6.992 12.907C6.327 12.888 5.814 12.66 5.434 12.337C5.054 12.033 4.731 11.615 4.56 11.083C4.902 11.159 5.396 11.14 5.7 11.045C5.073 10.912 4.617 10.57 4.256 10.152C3.895 9.753 3.648 9.202 3.648 8.442C3.667 8.404 3.724 8.461 3.762 8.48C4.047 8.613 4.408 8.727 4.807 8.746C4.161 8.29 3.515 7.416 3.705 6.181C3.762 5.82 3.876 5.516 4.028 5.25C4.199 5.421 4.351 5.611 4.522 5.782C5.7 6.96 7.22 7.815 9.424 7.986C9.12 6.637 9.823 5.63 10.678 5.136C11.153 4.87 11.818 4.737 12.464 4.87C13.053 4.984 13.509 5.288 13.851 5.63C14.497 5.516 15.01 5.269 15.504 5.003C15.276 5.63 14.915 6.124 14.364 6.428C14.896 6.39 15.409 6.2 15.846 6.029C15.523 6.58 15.067 7.017 14.573 7.416Z" fill="white"/>
</svg>
