<svg width="19" height="20" viewBox="0 0 19 20" fill="none" xmlns="http://www.w3.org/2000/svg">
<g clip-path="url(#clip0)">
<path d="M7.29607 11.045C7.29607 10.798 7.29607 10.57 7.29607 10.323C6.57407 10.323 5.85207 10.323 5.14907 10.323C5.13007 10.323 5.14907 10.342 5.14907 10.342C5.14907 10.57 5.14907 10.798 5.14907 11.026C5.39607 11.026 5.66207 11.007 5.87107 11.026C5.87107 12.318 5.87107 13.629 5.87107 14.921C6.09907 14.921 6.34607 14.921 6.57407 14.921C6.57407 13.629 6.55507 12.299 6.57407 11.007C6.82107 11.045 7.04907 11.045 7.29607 11.045Z" fill="white"/>
<path d="M8.45509 13.743C8.45509 13.857 8.47408 13.99 8.45509 14.066C8.43608 14.161 8.18909 14.351 8.05609 14.332C7.86609 14.313 7.92309 13.933 7.92309 13.724C7.92309 12.964 7.92309 12.242 7.92309 11.501C7.71409 11.501 7.50509 11.501 7.31509 11.501C7.29609 11.501 7.31509 11.52 7.31509 11.52C7.31509 12.261 7.31509 13.23 7.31509 14.047C7.31509 14.351 7.29609 14.636 7.41009 14.788C7.63809 15.13 8.17009 14.845 8.34109 14.674C8.37909 14.636 8.41708 14.579 8.47408 14.56C8.47408 14.674 8.47408 14.807 8.47408 14.921C8.68308 14.921 8.89209 14.921 9.10109 14.921C9.10109 13.781 9.10109 12.641 9.10109 11.501C8.89209 11.501 8.68308 11.501 8.47408 11.501C8.45508 12.223 8.45509 13.04 8.45509 13.743Z" fill="white"/>
<path d="M8.81568 7.26394C8.81568 7.41594 8.79668 7.68194 8.85368 7.77694C8.96768 7.94794 9.27168 7.87194 9.32868 7.71994C9.38568 7.58694 9.34768 7.35894 9.34768 7.20694C9.34768 6.78894 9.34768 6.54194 9.34768 6.14294C9.34768 5.95294 9.38568 5.72494 9.32868 5.62994C9.27168 5.51594 9.11968 5.49694 9.02468 5.51594C8.75868 5.55394 8.81568 5.89594 8.81568 6.18094C8.81568 6.46594 8.81568 6.95994 8.81568 7.26394Z" fill="white"/>
<path d="M9.5 0.5C4.256 0.5 0 4.756 0 10C0 15.244 4.256 19.5 9.5 19.5C14.744 19.5 19 15.244 19 10C19 4.756 14.744 0.5 9.5 0.5ZM10.526 6.751C10.526 6.124 10.526 5.535 10.526 5.003C10.716 4.984 10.963 4.984 11.153 5.003C11.153 5.421 11.153 5.858 11.153 6.314C11.153 6.77 11.115 7.245 11.153 7.644C11.191 7.872 11.362 7.853 11.514 7.739C11.571 7.701 11.666 7.625 11.685 7.568C11.704 7.492 11.685 7.34 11.685 7.245C11.685 6.542 11.685 5.706 11.685 5.022C11.875 5.003 12.122 5.003 12.312 5.022C12.312 6.143 12.312 7.264 12.312 8.385C12.122 8.404 11.875 8.404 11.685 8.385C11.685 8.271 11.685 8.157 11.685 8.043C11.533 8.214 11.039 8.651 10.697 8.366C10.431 8.119 10.526 7.245 10.526 6.751ZM8.968 4.908C9.424 4.87 9.728 5.041 9.88 5.307C10.051 5.592 9.994 6.238 9.994 6.656C9.994 7.074 10.032 7.739 9.899 8.024C9.69 8.423 9.025 8.613 8.588 8.328C8.36 8.195 8.208 7.929 8.189 7.644C8.151 7.34 8.189 6.979 8.189 6.637C8.189 6.124 8.132 5.611 8.284 5.326C8.398 5.117 8.626 4.946 8.968 4.908ZM5.833 3.806C6.042 3.787 6.308 3.806 6.536 3.806C6.688 4.338 6.821 4.889 6.954 5.421C6.973 5.497 6.973 5.573 7.03 5.63C7.087 5.573 7.087 5.478 7.106 5.421C7.239 4.889 7.372 4.319 7.505 3.806C7.733 3.806 7.961 3.806 8.208 3.806C7.999 4.566 7.733 5.364 7.505 6.143C7.467 6.257 7.41 6.371 7.41 6.485C7.391 6.637 7.41 6.808 7.41 6.96C7.41 7.454 7.41 7.91 7.41 8.385C7.182 8.385 6.935 8.404 6.707 8.385C6.707 8.081 6.707 7.777 6.707 7.492C6.707 7.188 6.745 6.884 6.707 6.599C6.688 6.485 6.631 6.371 6.612 6.257C6.327 5.421 6.099 4.585 5.833 3.806ZM14.63 14.541C14.63 15.472 13.889 16.213 12.958 16.213H6.023C5.092 16.213 4.351 15.472 4.351 14.541V10.95C4.351 10.019 5.092 9.278 6.023 9.278H12.958C13.889 9.278 14.63 10.019 14.63 10.95V14.541Z" fill="white"/>
<path d="M11.4951 13.306C11.4951 12.907 11.5141 12.508 11.4951 12.242C11.4761 11.957 11.4001 11.71 11.2481 11.596C11.0391 11.425 10.7161 11.463 10.5261 11.596C10.4501 11.653 10.3931 11.729 10.3171 11.767C10.3171 11.292 10.3171 10.798 10.3171 10.323C10.1081 10.323 9.89909 10.323 9.69009 10.323C9.67109 10.323 9.69009 10.342 9.69009 10.342C9.69009 11.881 9.69009 13.401 9.69009 14.94C9.89909 14.94 10.1081 14.94 10.3171 14.94C10.3171 14.864 10.3171 14.769 10.3171 14.693C10.4881 14.902 10.8681 15.073 11.1911 14.921C11.3621 14.826 11.4761 14.617 11.4951 14.37C11.5141 14.066 11.4951 13.686 11.4951 13.306ZM10.7541 14.446C10.6021 14.541 10.4311 14.408 10.3361 14.313C10.3361 13.857 10.3361 13.268 10.3361 12.755C10.3361 12.584 10.2981 12.356 10.3361 12.242C10.3741 12.128 10.5831 12.033 10.7351 12.128C10.9441 12.242 10.8491 12.964 10.8491 13.287C10.8491 13.496 10.8491 13.705 10.8491 13.933C10.8491 14.123 10.8681 14.37 10.7541 14.446Z" fill="white"/>
<path d="M13.8129 13.6859C13.6039 13.6859 13.3759 13.6859 13.1669 13.6859C13.1479 13.9329 13.2239 14.2939 13.0529 14.4079C12.9959 14.4459 12.8629 14.4839 12.7489 14.4269C12.4829 14.3129 12.6539 13.6859 12.5969 13.3439C12.9959 13.3439 13.3949 13.3439 13.7939 13.3439C13.7749 12.8689 13.8319 12.4129 13.7559 12.0329C13.6609 11.6529 13.3379 11.4059 12.8439 11.4249C12.3879 11.4439 12.0269 11.7669 11.9699 12.1659C11.9129 12.5649 11.9509 13.1729 11.9509 13.7049C11.9509 14.2749 12.0079 14.6549 12.3309 14.8829C12.5969 15.0729 13.0909 15.0919 13.4139 14.9019C13.7559 14.7119 13.8319 14.2939 13.8129 13.6859ZM12.6729 12.1659C12.7489 12.0519 12.9579 12.0519 13.0719 12.1279C13.2239 12.2419 13.1669 12.5459 13.1859 12.7739C12.9959 12.7739 12.8059 12.7739 12.6349 12.7739C12.6159 12.5459 12.5779 12.2989 12.6729 12.1659Z" fill="white"/>
</g>
<defs>
<clipPath id="clip0">
<rect y="0.5" width="19" height="19" fill="white"/>
</clipPath>
</defs>
</svg>
